<?xml version="1.0" encoding="UTF-8" standalone="no"?>
<!-- Created with Inkscape (http://www.inkscape.org/) -->

<svg
   width="512"
   height="512"
   viewBox="0 0 512 512"
   version="1.1"
   id="svg1"
   xml:space="preserve"
   xmlns:xlink="http://www.w3.org/1999/xlink"
   xmlns="http://www.w3.org/2000/svg"
   xmlns:svg="http://www.w3.org/2000/svg"><defs
     id="defs1"><linearGradient
       id="linearGradient254"><stop
         style="stop-color:#424242;stop-opacity:1;"
         offset="0"
         id="stop254" /><stop
         style="stop-color:#080808;stop-opacity:1;"
         offset="0.54920906"
         id="stop1" /><stop
         style="stop-color:#050505;stop-opacity:1;"
         offset="0.80799645"
         id="stop2" /><stop
         style="stop-color:#222222;stop-opacity:1;"
         offset="1"
         id="stop255" /></linearGradient><linearGradient
       xlink:href="#linearGradient254"
       id="linearGradient255"
       x1="132.86938"
       y1="80.151398"
       x2="379.1304"
       y2="431.8486"
       gradientUnits="userSpaceOnUse"
       spreadMethod="pad" /><filter
       style="color-interpolation-filters:sRGB"
       id="filter45"
       x="-0.57278481"
       y="-0.51110212"
       width="2.1455696"
       height="2.0617538"><feFlood
         result="flood"
         in="SourceGraphic"
         flood-opacity="0.69999999999999996"
         flood-color="rgb(104,255,254)"
         id="feFlood44" /><feGaussianBlur
         result="blur"
         in="SourceGraphic"
         stdDeviation="35"
         id="feGaussianBlur44" /><feComposite
         result="comp1"
         operator="in"
         in="flood"
         in2="offset"
         id="feComposite44" /><feComposite
         result="comp2"
         operator="over"
         in="SourceGraphic"
         in2="comp1"
         id="feComposite45" /></filter></defs><g
     id="layer2"><rect
       style="display:none;fill:none;fill-opacity:1;stroke:#000000;stroke-width:13;stroke-linecap:butt;stroke-linejoin:miter;stroke-miterlimit:4;stroke-dasharray:none;stroke-opacity:1;paint-order:normal"
       id="rect236-1"
       width="409"
       height="472"
       x="51.5"
       y="20"
       ry="48" /><path
       style="display:none;fill:#008000;stroke-width:0.859768"
       d="M 86.912264,503.4693 C 68.611868,501.63214 50.594125,488.61652 42.488519,471.37846 37.026544,459.76253 37.382085,475.71632 37.629875,253.36503 L 37.855429,50.952187 40.354563,44.933812 C 47.775083,27.063823 60.172006,15.760852 78.694388,9.9772752 L 85.142651,7.9638115 H 256.23638 427.3301 l 5.94414,1.9913043 c 21.17327,7.0930722 34.03976,20.5259782 39.19428,40.9196642 2.65173,10.49145 2.70837,399.59435 0.0597,409.95063 -5.04803,19.73761 -21.69424,36.57396 -40.89928,41.36641 -5.55487,1.3862 -331.59737,2.59439 -344.716667,1.27748 z m 338.101516,-2.46184 c 22.0219,-3.57367 39.63304,-19.53049 45.51086,-41.23587 2.42639,-8.9601 2.33443,-397.792478 -0.0964,-407.529751 C 466.172,35.192377 456.28247,22.872774 441.08636,15.6901 428.29504,9.6440922 442.86647,10.063456 254.34434,10.315629 L 84.28287,10.543116 78.264503,12.55363 C 58.590048,19.126143 44.095098,35.119352 40.424234,54.305228 38.979332,61.857058 38.521581,434.58584 39.93627,451.64078 c 2.009356,24.22413 21.185223,45.41025 44.703741,49.39016 6.166746,1.04353 333.937539,1.02091 340.373759,-0.0229 z M 91.155984,488.82374 c -0.2243,-0.61033 -0.508387,-6.91313 -0.631275,-14.00621 l -0.223457,-12.89651 h -12.03674 -12.03675 l 0.05179,5.58848 c 0.02841,3.07367 0.367003,6.8459 0.752298,8.38273 2.088827,8.33171 -9.026791,-4.18668 -13.470397,-15.17036 L 51.611749,455.90265 51.375007,260.30554 C 51.212841,126.32536 51.42396,62.812565 52.045256,58.69009 55.385776,36.524229 73.525146,22.149977 98.156546,22.149977 h 7.190664 l 0.10829,100.807713 c 0.0595,55.44427 0.15625,160.58308 0.21493,233.64182 l 0.10676,132.83406 -7.106639,0.24994 c -5.205267,0.18307 -7.215732,-0.0471 -7.514439,-0.85977 z m 9.247536,-1.23165 3.22413,-0.53292 V 255.46433 23.869507 l -5.373555,0.01497 C 77.245967,23.942826 62.168129,34.061935 55.697751,52.445019 l -2.19813,6.24512 0.101292,196.685561 c 0.07289,141.4586 0.370051,197.68355 1.058373,200.23978 1.397545,5.19005 4.64442,11.94719 7.161191,14.90326 l 2.195999,2.5793 0.03092,-6.66321 c 0.03289,-7.08878 -0.04479,-6.97625 4.759635,-6.89632 0.945749,0.0158 6.652454,0.0746 12.68159,0.13087 l 10.962029,0.1023 v 13.28368 c 0,15.72082 0.0655,15.8405 7.95285,14.53681 z M 65.153053,447.21978 c -0.81799,-0.37142 -1.074708,-5.61019 -1.074708,-21.93182 v -21.44383 l 13.971225,0.23622 13.971226,0.23624 0.229948,21.27926 0.229968,21.27924 -7.537993,0.006 c -4.145887,0.003 -10.052797,0.19072 -13.12647,0.41634 -3.073673,0.22563 -6.072103,0.19065 -6.663196,-0.0777 z m 25.405948,-17.96992 c 0.299874,-18.00578 -0.135194,-22.47251 -2.231412,-22.90877 -0.805977,-0.16772 -6.204871,-0.18549 -11.997562,-0.0394 l -10.532153,0.26549 v 18.72104 c 0,22.17854 -1.443712,19.96762 12.848053,19.67563 L 90.301252,444.7257 Z M 64.484544,390.95188 c -1.300177,-2.10372 -0.853254,-41.27906 0.481079,-42.16959 2.148751,-1.43406 25.667314,-0.60544 26.653082,0.93908 0.480401,0.75271 0.735453,9.70176 0.612585,21.49417 l -0.210494,20.20454 -13.477311,0.23645 c -9.07441,0.15922 -13.66732,-0.071 -14.058941,-0.70465 z m 25.663021,-16.72715 c -0.08453,-8.03882 -0.181253,-16.64724 -0.214946,-19.12982 l -0.06119,-4.51377 H 77.834658 65.797906 v 19.36836 19.36838 l 12.251696,-0.23855 12.25168,-0.23855 z M 64.651518,335.3919 c -0.315243,-0.31524 -0.573173,-9.98762 -0.573173,-21.49418 v -20.92101 h 13.664297 c 11.666911,0 13.740575,0.1988 14.186145,1.35998 1.315109,3.42705 0.557789,40.57086 -0.838091,41.10654 -1.853943,0.71143 -25.722754,0.66508 -26.439178,-0.0514 z m 25.907483,-17.91181 c 0.141764,-8.51171 0.01961,-17.13088 -0.271212,-19.15372 l -0.52894,-3.67792 -11.765542,0.23886 -11.765545,0.23883 -0.231454,19.15353 -0.231456,19.15353 12.268207,-0.23866 12.268193,-0.23864 z m -26.28078,-58.65776 0.23,-21.30061 h 13.756291 13.756284 v 21.0643 21.0643 l -13.986295,0.23632 -13.986282,0.2363 z m 25.421194,18.50661 c 1.091505,-1.09149 1.513963,-31.90179 0.489825,-35.72333 -0.506063,-1.88834 -0.803114,-1.93449 -12.454891,-1.93449 H 65.797874 v 18.7716 c 0,10.32439 0.25793,19.02953 0.573183,19.34477 1.064547,1.06454 22.221134,0.64869 23.328358,-0.45855 z M 64.67252,223.64314 c -0.326804,-0.32681 -0.594175,-9.79148 -0.594175,-21.03262 v -20.43845 l 3.756531,-0.56332 c 4.780525,-0.71689 22.915399,0.13319 23.902647,1.12044 0.410083,0.41008 0.641581,9.811 0.514437,20.89093 l -0.231164,20.14531 -13.377056,0.23594 c -7.357372,0.12978 -13.64443,-0.0315 -13.97122,-0.35823 z m 25.536743,-2.52733 c 0.68052,-1.77337 0.68052,-34.19622 0,-35.9696 -0.441226,-1.14981 -2.367694,-1.35996 -12.466621,-1.35996 H 65.797874 v 18.77159 c 0,10.32437 0.25793,19.02951 0.573183,19.34476 1.350319,1.35031 23.296077,0.62599 23.838206,-0.78679 z M 66.495734,168.52955 c -2.985317,-0.41731 -2.919122,0.19819 -2.417389,-22.48406 l 0.429876,-19.43377 13.261335,-0.23816 c 16.202066,-0.29094 14.651772,-2.60029 14.667961,21.84967 l 0.01314,19.89196 -3.654003,0.52984 c -3.733735,0.54142 -18.135279,0.46683 -22.300935,-0.11548 z m 24.063267,-17.84436 c 0.141764,-8.51169 0.02138,-17.12011 -0.267633,-19.12982 l -0.525361,-3.65401 H 77.781946 65.797874 v 19.36838 19.36837 l 12.251696,-0.23854 12.251682,-0.23855 z m -25.405948,-37.9581 c -0.817412,-0.33835 -1.074708,-5.36781 -1.074708,-21.007602 v -20.56277 l 11.821805,-0.099 c 13.963014,-0.11694 15.062158,-0.02973 15.901415,1.262325 0.352297,0.542358 0.545748,9.884687 0.429891,20.760748 l -0.21066,19.774639 -12.896518,0.15823 c -7.093085,0.0871 -13.380132,-0.042 -13.971225,-0.28657 z m 22.353958,-1.71316 3.224122,-0.5329 -0.01177,-16.867914 C 90.703491,70.635601 92.1065,72.876259 77.734393,72.876259 H 65.797874 v 18.843229 c 0,14.270112 0.260826,18.948462 1.074709,19.276872 1.561099,0.62992 16.850978,0.64294 20.634428,0.0175 z M 65.58293,57.365046 C 63.028604,55.820457 63.458667,44.797268 66.232745,40.709423 71.014932,33.662496 79.767065,28.63019 87.274896,28.610608 l 4.7459,-0.01234 0.23696,14.121807 c 0.148785,8.867804 -0.08708,14.322097 -0.63404,14.660133 -1.555677,0.96145 -24.447779,0.948154 -26.040786,-0.01508 z M 80.484249,55.68091 H 90.731133 V 42.708825 29.73674 l -3.538656,0.597856 c -8.18181,1.382302 -16.830418,6.873835 -19.707593,12.513558 -2.930867,5.744971 -1.874308,14.608209 1.58325,13.281426 0.643072,-0.246763 5.78032,-0.44867 11.416115,-0.44867 z m 37.967451,384.1037 0.22188,-50.08407 137.3308,-0.21756 137.33083,-0.21756 0.46972,1.93709 c 0.25835,1.06541 0.36273,23.60324 0.23198,50.08408 l -0.23775,48.14698 -137.78465,0.21757 -137.78468,0.21756 z m 273.198,-0.44126 4e-5,-48.3707 -131.32947,0.39291 c -72.23122,0.2161 -133.36067,0.41349 -135.84325,0.43866 l -4.51379,0.0458 v 32.53334 c 0,17.89334 0.25171,39.48235 0.55935,47.97557 l 0.55935,15.44222 135.28388,-0.0435 135.28385,-0.0436 z m 15.01373,49.4454 c -0.2245,-0.59109 -0.30907,-105.92335 -0.18796,-234.0717 l 0.2202,-232.99696 8.59769,0.264017 c 21.80268,0.669515 35.19279,10.055442 42.8071,30.006075 l 1.9008,4.980369 0.1334,176.682209 c 0.15598,206.6186 -0.0843,223.52228 -3.27648,230.41767 -2.63417,5.69017 -8.86902,13.75627 -10.6332,13.75627 -1.43017,0 -1.729,-2.1939 -0.40988,-3.00917 0.47287,-0.29226 0.85976,-3.42086 0.85976,-6.95249 v -6.42112 l -12.25168,0.23855 -12.25169,0.23855 -0.23624,13.97121 -0.23624,13.97123 h -7.31372 c -5.06009,0 -7.43947,-0.33116 -7.72186,-1.07471 z m 13.35864,-14.83099 0.42989,-13.75628 13.97122,-0.23623 13.97122,-0.23624 0.004,6.68449 0.004,6.6845 2.10818,-2.5793 c 1.1595,-1.41863 3.18879,-5.09412 4.5095,-8.1678 l 2.40128,-5.58849 0.22398,-198.01736 C 457.84773,80.369486 457.73482,60.206347 456.50791,55.471462 451.64155,36.691542 437.4667,25.506439 416.79794,24.137063 l -7.95284,-0.526896 -0.18337,52.790424 c -0.10083,29.034719 -0.0829,72.328639 0.0402,96.208679 0.12288,23.88005 0.2054,104.6629 0.18338,179.51748 l -0.04,136.09922 5.37355,-0.25597 5.37354,-0.25597 z m 0.86923,-27.0143 c -1.62716,-1.08513 -2.46885,-36.81429 -0.95912,-40.71428 l 0.92375,-2.38627 13.55428,0.23684 13.55429,0.23684 0.22998,21.27926 0.22996,21.27924 -10.11729,0.01 c -5.56451,0.005 -11.47143,0.21267 -13.12648,0.46106 -1.65505,0.24837 -3.58527,0.0675 -4.28937,-0.40214 z m 25.78356,-20.67256 c 0,-17.10771 -0.14157,-18.95983 -1.50459,-19.68386 -1.83244,-0.97338 -10.76334,-1.20335 -18.05512,-0.4649 l -5.37355,0.54419 v 18.67143 c 0,22.12224 -1.51628,19.81779 13.03982,19.81779 h 11.89344 z m -25.79302,-35.26246 c -1.06974,-0.67619 -1.34158,-4.16697 -1.59423,-20.4702 -0.36949,-23.84382 -0.6963,-23.05502 9.20492,-22.21807 3.52277,0.29778 9.44181,0.54143 13.15346,0.54143 h 6.74841 v 20.96403 20.96402 l -1.93447,0.51842 c -3.1248,0.83741 -24.16928,0.59088 -25.57809,-0.29963 z m 25.25111,-3.67225 c 0.67505,-2.51888 0.67505,-32.3017 0,-34.82058 -0.50605,-1.88834 -0.80311,-1.93447 -12.45488,-1.93447 H 421.7416 v 18.77158 c 0,10.32439 0.25793,19.02953 0.57319,19.34477 1.79889,1.79889 23.30061,0.56998 23.81816,-1.3613 z m -25.88948,-52.85377 c -0.85579,-2.17286 -0.79768,-40.35135 0.0627,-41.21713 0.88401,-0.88952 21.24409,-1.49463 25.21634,-0.74942 l 2.90171,0.54436 -0.22988,21.23748 -0.2299,21.2375 -13.55989,0.23685 c -12.31805,0.21518 -13.61497,0.097 -14.16115,-1.28964 z m 25.25345,-1.40942 c 0.0615,-0.0643 0.25489,-8.62879 0.42988,-19.03198 l 0.31818,-18.91488 -12.25169,-0.23855 -12.25169,-0.23855 v 19.29672 c 0,13.51843 0.28937,19.39318 0.9663,19.61883 0.84491,0.28163 22.49697,-0.18543 22.78902,-0.49159 z m -25.19587,-54.04601 c -0.86603,-1.33926 -1.51015,-34.9571 -0.74766,-39.02149 L 420.1,237.09182 h 14.16221 14.16223 l -0.22996,21.27926 -0.22998,21.27924 -13.47729,0.23644 c -10.19093,0.1788 -13.65016,-0.031 -14.18616,-0.85977 z m 25.27838,-1.89728 c 0.58901,-0.48686 1.23883,-30.92611 0.73233,-34.30371 l -0.60203,-4.01464 H 433.72567 421.7416 v 19.20148 c 0,10.56081 0.28779,19.48926 0.63952,19.84099 0.51825,0.51824 22.52639,-0.16873 23.19831,-0.72412 z m -25.87563,-55.6004 c -0.70706,-3.53542 -0.70094,-31.18129 0.008,-36.35413 l 0.54959,-4.00969 13.85151,0.23568 13.85186,0.23565 v 21.0643 21.06431 l -13.8596,0.2357 -13.8596,0.23571 z m 25.81522,-0.24536 c 0.19195,-0.14033 0.50326,-25.73516 0.39072,-32.12415 l -0.0946,-5.37355 H 433.7784 421.74165 v 18.77159 c 0,10.32437 0.2682,19.03978 0.59602,19.36759 0.45225,0.45226 22.52062,-0.15843 23.1814,-0.64148 z m -25.29379,-53.57871 c -0.69908,-1.70532 -0.89039,-40.26269 -0.20316,-40.94477 0.77091,-0.76509 22.10026,-1.67738 25.2783,-1.08119 l 3.09403,0.58046 v 20.93335 c 0,16.52383 -0.23857,21.02493 -1.13256,21.36797 -3.58645,1.37625 -26.41785,0.65354 -27.03661,-0.85582 z m 26.00569,-18.6358 c 0.83025,-23.24956 2.06041,-21.16808 -12.5105,-21.16808 H 421.7416 v 19.34476 19.34477 h 11.93181 11.93182 z m -26.52728,-37.71861 c -0.7733,-2.88253 -0.22611,-39.07858 0.60333,-39.908667 0.39312,-0.393425 6.7769,-0.715334 14.18616,-0.715334 h 13.47137 l 0.22998,21.279246 0.22996,21.279235 h -14.1009 c -13.89623,0 -14.10845,-0.0281 -14.6199,-1.93448 z m 25.91406,-0.50462 c 0.83978,-0.533 1.03852,-4.95178 0.85977,-19.116661 l -0.23249,-18.423414 -11.54005,-0.240917 c -8.65512,-0.180699 -11.71468,0.03419 -12.23853,0.859765 -0.83419,1.314599 -0.97705,36.242167 -0.15161,37.067617 0.81877,0.81877 21.9918,0.68576 23.30291,-0.14639 z M 420.5109,57.49582 c -0.82045,-1.327504 -1.62565,-22.852412 -0.983,-26.27801 l 0.61484,-3.277339 4.94557,0.448441 c 7.83404,0.710372 15.34444,5.394806 20.87433,13.01989 3.35191,4.621901 3.68224,15.455965 0.49729,16.309512 -3.05382,0.818385 -25.42427,0.626583 -25.94903,-0.222494 z m 25.3042,-7.310409 c 0,-8.653025 -8.82422,-17.340688 -19.55971,-19.257045 L 421.7416,30.122625 V 42.901773 55.68091 h 12.03676 12.03674 z M 118.81687,376.66073 c -0.31526,-0.31523 -0.57318,-53.51334 -0.57318,-118.21801 V 140.79787 l 128.32029,-0.15909 c 125.68253,-0.15584 145.93628,-0.051 146.8053,0.76037 0.59714,0.5575 1.0379,231.51209 0.44638,233.90029 l -0.47913,1.93449 H 256.36329 c -75.33528,0 -137.23118,-0.25794 -137.54642,-0.5732 z M 391.64974,258.58602 V 142.5174 H 255.80649 119.96323 v 115.49544 c 0,63.52249 0.25792,115.75336 0.57317,116.0686 0.31525,0.31525 61.44472,0.57317 135.84327,0.57317 h 135.27007 z m -201.10413,92.19184 c -19.37396,-0.2575 -19.77198,-0.37465 -19.82876,-5.83583 -0.0676,-6.49236 -7.63577,-5.96776 86.09479,-5.96776 h 83.68194 l 0.7789,3.15226 c 0.841,3.40357 -0.58514,8.45378 -2.38779,8.45557 -0.53372,5.3e-4 -30.18102,0.0973 -65.88286,0.21494 -35.70184,0.11768 -72.80714,0.10905 -82.45622,-0.0191 z m 148.61785,-3.83962 c 1.00038,-1.77413 1.04686,-2.65947 0.23338,-4.44486 l -1.01582,-2.22946 h -81.07513 c -86.97552,0 -84.94898,-0.0987 -84.8695,4.13266 0.0884,4.71434 -4.84114,4.43674 83.03177,4.67553 94.52378,0.25686 82.16965,0.57185 83.6953,-2.13387 z M 172.37022,324.97336 c -2.33653,-2.97041 -2.28377,-9.50391 0.10113,-12.53593 l 1.78194,-2.26538 h 82.42654 82.42651 l 1.33841,1.91085 c 2.38852,3.4101 1.80513,11.35351 -0.99565,13.55659 l -2.33405,1.83596 -81.53209,-0.18269 -81.53211,-0.1827 z m 166.44732,-1.08111 c 1.66226,-1.37956 1.60478,-7.66697 -0.0923,-10.08981 l -1.33841,-1.91084 h -80.8835 -80.88349 l -1.60544,1.85109 c -2.05967,2.37483 -2.05622,6.80133 0.008,9.42488 l 1.61279,2.05041 80.96839,-0.14575 c 61.63891,-0.11097 81.2659,-0.39267 82.21456,-1.17998 z M 243.5355,287.23409 c -49.60583,-46.30011 -46.19319,-42.62531 -46.19319,-49.74184 0,-4.39347 0.28669,-5.15791 2.9232,-7.79443 l 2.92321,-2.92321 h 12.08753 12.08754 l 0.25013,-26.60624 0.25013,-26.60621 2.9629,-3.05575 2.96289,-3.05575 h 22.42389 c 31.03653,0 28.82485,-2.59924 28.82485,33.87582 v 25.44813 h 12.02318 12.02318 l 2.8078,2.50879 c 2.66668,2.38266 2.80781,2.81278 2.80781,8.55624 0,7.28945 1.93133,5.01286 -27.34715,32.23602 -26.28046,24.43556 -25.38042,23.76082 -31.69403,23.76082 h -5.05009 z m 20.69134,1.22885 c 10.4756,-8.9181 47.39581,-43.79267 47.79286,-45.14481 3.56149,-12.12859 0.55007,-14.82397 -16.56212,-14.82397 h -12.048 l -0.26021,-27.15432 -0.2602,-27.15431 -2.80783,-2.50766 -2.80779,-2.50767 h -20.65566 c -29.49468,0 -27.84063,-2.07413 -27.35946,34.30769 l 0.32515,24.58638 -12.75499,0.42989 -12.75498,0.42988 -2.50589,2.80782 c -6.35516,7.12085 -6.4808,6.95154 32.89214,44.32917 l 16.91302,16.05592 h 4.28091 c 3.78987,0 4.77318,-0.4191 8.57305,-3.65401 z M 118.6385,126.82665 c -0.22603,-0.59109 -0.31062,-24.28843 -0.18795,-52.660739 l 0.22303,-51.586046 137.34784,-0.217577 c 130.38982,-0.206552 137.35076,-0.141209 137.40481,1.289652 0.0672,1.777092 0.0566,102.65942 -0.0109,103.60458 -0.0865,1.21088 -274.3134,0.78185 -274.77678,-0.42987 z M 391.64974,74.593121 V 23.864185 l -135.62832,0.21761 -135.62831,0.217599 -0.22181,50.511338 -0.22182,50.511318 h 135.85013 135.85013 z"
       id="path1" /><path
       style="display:none;fill:#ff0000;fill-opacity:0.484277;stroke:#e12424;stroke-opacity:1"
       d="M 65.31058,-12.887372 V 532.09556"
       id="path4" /><path
       style="display:none;fill:#e22424;fill-opacity:0.647059;stroke:#e12424;stroke-opacity:1"
       d="M 91.412969,-22.607508 V 509.59727"
       id="path3" /></g><g
     id="layer1"><path
       style="baseline-shift:baseline;display:inline;overflow:visible;opacity:1;vector-effect:none;fill:url(#linearGradient255);enable-background:accumulate;stop-color:#000000;stop-opacity:1"
       d="M 99.649204,9.4598846 H 412.35055 c 32.30974,0 58.32082,26.0110854 58.32082,58.3208194 V 444.2193 c 0,32.30973 -26.01108,58.32082 -58.32082,58.32082 H 99.649204 c -32.309734,0 -58.32082,-26.01109 -58.32082,-58.32082 V 67.780704 c 0,-32.309734 26.011086,-58.3208194 58.32082,-58.3208194 z"
       id="path241" /><path
       style="baseline-shift:baseline;display:inline;overflow:visible;opacity:1;vector-effect:none;fill:#ffffff;enable-background:accumulate;stop-color:#000000;stop-opacity:1"
       d="m 99.648437,4.4589844 c -34.993248,0 -63.320312,28.3290176 -63.320312,63.3222656 v 376.4375 c 0,34.99325 28.327064,63.32227 63.320312,63.32227 H 412.34961 c 34.99325,0 63.32226,-28.32902 63.32226,-63.32227 V 67.78125 c 0,-34.993248 -28.32901,-63.3222656 -63.32226,-63.3222656 z m 0,9.9999996 H 412.34961 c 29.62622,0 53.32226,23.696046 53.32226,53.322266 v 376.4375 c 0,29.62622 -23.69604,53.32227 -53.32226,53.32227 H 99.648437 c -29.62622,0 -53.320312,-23.69605 -53.320312,-53.32227 V 67.78125 c 0,-29.62622 23.694092,-53.322266 53.320312,-53.322266 z"
       id="path242" /><g
       id="g235"
       style="display:inline;fill:#ffffff;fill-opacity:1;stroke:none"
       transform="translate(-2.9346138)"><path
         style="display:inline;fill:#ffffff;fill-opacity:1;stroke:none;stroke-opacity:1"
         d="M 88.610901,489.4386 V 461.27393 H 62.399297 l -0.08194,7.04485 c 0,0 4.177807,7.54134 10.584272,12.99741 7.521632,6.4058 15.709272,8.12241 15.709272,8.12241 z m 334.778199,0 v -28.16467 h 26.2116 l 0.0819,7.04485 c 0,0 -4.1778,7.54134 -10.58427,12.99741 -7.52163,6.4058 -15.70927,8.12241 -15.70927,8.12241 z m 0,0 v -28.16467 h 26.2116 l 0.0819,7.04485 c 0,0 -4.1778,7.54134 -10.58427,12.99741 -7.52163,6.4058 -15.70927,8.12241 -15.70927,8.12241 z m -334.7782,0 V 461.27393 H 62.3993 l -0.0819,7.04485 c 0,0 4.1778,7.54134 10.58427,12.99741 7.52163,6.4058 15.70927,8.12241 15.70927,8.12241 z"
         id="path5-4"
         transform="translate(2.9346138)" /><path
         style="fill:#ffffff;fill-opacity:1;stroke:none;stroke-opacity:1"
         d="M 91.522184,27.862628 V 56.027304 H 65.31058 l -0.08194,-7.044857 c 0,0 4.177807,-7.541341 10.584272,-12.997409 7.521632,-6.405801 15.709272,-8.12241 15.709272,-8.12241 z m 334.824856,0 v 28.164676 h 26.21161 l 0.0819,-7.044857 c 0,0 -4.17781,-7.541341 -10.58427,-12.997409 -7.52164,-6.405801 -15.70928,-8.12241 -15.70928,-8.12241 z"
         id="path5" /><path
         style="fill:#ffffff;fill-opacity:1;stroke:none;stroke-width:0.964641;stroke-opacity:1"
         id="use232"
         width="25.215803"
         height="40.249443"
         x="65.677994"
         y="405.67468"
         d="m 65.677994,405.67468 h 25.215803 v 40.24945 H 65.677994 Z m 386.513236,0 h -25.2158 v 40.24945 h 25.2158 z" /><path
         style="display:inline;fill:#ffffff;fill-opacity:1;stroke:none;stroke-width:0.964641;stroke-opacity:1"
         id="use231"
         width="25.215803"
         height="40.249443"
         x="65.677994"
         y="350.03568"
         d="m 65.677994,350.03568 h 25.215803 v 40.24944 H 65.677994 Z m 386.513236,0 h -25.2158 v 40.24944 h 25.2158 z" /><path
         style="display:inline;fill:#ffffff;fill-opacity:1;stroke:none;stroke-width:0.964641;stroke-opacity:1"
         id="use230"
         width="25.215803"
         height="40.249443"
         x="65.677994"
         y="294.39664"
         d="m 65.677994,294.39664 h 25.215803 v 40.24944 H 65.677994 Z m 386.513236,0 h -25.2158 v 40.24944 h 25.2158 z" /><path
         style="display:inline;fill:#ffffff;fill-opacity:1;stroke:none;stroke-width:0.964641;stroke-opacity:1"
         id="use229"
         width="25.215803"
         height="40.249443"
         x="65.677994"
         y="238.75764"
         d="m 65.677994,238.75764 h 25.215803 v 40.24945 H 65.677994 Z m 386.513236,0 h -25.2158 v 40.24945 h 25.2158 z" /><path
         style="display:inline;fill:#ffffff;fill-opacity:1;stroke:none;stroke-width:0.964641;stroke-opacity:1"
         id="use228"
         width="25.215803"
         height="40.249443"
         x="65.677994"
         y="183.11862"
         d="m 65.677994,183.11862 h 25.215803 v 40.24944 H 65.677994 Z m 386.513236,0 h -25.2158 v 40.24944 h 25.2158 z" /><path
         style="display:inline;fill:#ffffff;fill-opacity:1;stroke:none;stroke-width:0.964641;stroke-opacity:1"
         id="use227"
         width="25.215803"
         height="40.249443"
         x="65.677994"
         y="127.47961"
         d="m 65.677994,127.47961 h 25.215803 v 40.24944 H 65.677994 Z m 386.513236,0 h -25.2158 v 40.24944 h 25.2158 z" /><path
         style="display:inline;fill:#ffffff;fill-opacity:1;stroke:none;stroke-width:0.964641;stroke-opacity:1"
         id="rect6"
         width="25.215803"
         height="40.249443"
         x="65.677994"
         y="71.840599"
         d="M 65.677994,71.840599 H 90.893797 V 112.09004 H 65.677994 Z m 386.513236,0 h -25.2158 v 40.249441 h 25.2158 z" /></g><path
       style="fill:none;fill-opacity:1;stroke:#ffffff;stroke-width:12;stroke-linecap:butt;stroke-linejoin:miter;stroke-miterlimit:4;stroke-dasharray:none;stroke-opacity:1;paint-order:normal"
       d="M 112.35838,153.81209 H 399.64162 M 112.35838,400.1671 h 287.28324"
       id="path237"
       transform="translate(-3.8890873,-20.989593)" /><path
       style="fill:none;fill-opacity:1;stroke:#ffffff;stroke-width:13;stroke-linecap:butt;stroke-linejoin:miter;stroke-miterlimit:4;stroke-dasharray:none;stroke-opacity:1;paint-order:normal"
       d="M 111,9 V 503 M 401,9 v 494"
       id="path238" /><g
       id="g243"
       style="mix-blend-mode:normal;filter:url(#filter45)"><path
         style="fill:#68dbdb;fill-opacity:1;stroke:#65cdd2;stroke-width:13;stroke-linecap:round;stroke-linejoin:miter;stroke-miterlimit:4;stroke-dasharray:none;stroke-opacity:1;paint-order:normal"
         d="m 177,327.33883 158,-0.5"
         id="path239" /><path
         id="path240"
         style="fill:#65cdd2;fill-opacity:1;stroke-width:13;stroke-linecap:round;stroke-linejoin:round;stroke-miterlimit:2;paint-order:stroke fill markers"
         transform="matrix(1.1995613,0,0,-1.1995613,-5.1277819,549.44627)"
         d="m 232.00965,220.79128 36.61651,37.50947 a 6.2882185,6.2882185 112.94604 0 1 -4.52184,10.68074 l -92.88085,-0.32729 a 6.2659401,6.2659401 67.530174 0 1 -4.41954,-10.68563 l 37.12781,-37.31172 a 19.711758,19.711758 0.27431547 0 1 28.07791,0.13443 z" /><rect
         style="fill:#65cdd2;fill-opacity:1;stroke:none;stroke-width:13;stroke-linecap:round;stroke-linejoin:round;stroke-miterlimit:2;stroke-dasharray:none;stroke-opacity:1;paint-order:stroke fill markers"
         id="rect242"
         width="57.629002"
         height="77.428192"
         x="227.33482"
         y="162.98811"
         ry="10" /></g></g></svg>
